<?xml version="1.0" encoding="utf-8"?>
<!-- Generator: Adobe Illustrator 18.1.1, SVG Export Plug-In . SVG Version: 6.00 Build 0)  -->
<!DOCTYPE svg PUBLIC "-//W3C//DTD SVG 1.1//EN" "http://www.w3.org/Graphics/SVG/1.1/DTD/svg11.dtd">
<svg version="1.1" id="Layer_1" xmlns="http://www.w3.org/2000/svg" xmlns:xlink="http://www.w3.org/1999/xlink" x="0px" y="0px"
	 viewBox="-107 446.1 1273.6 192.2" enable-background="new -107 446.1 1273.6 192.2" xml:space="preserve">
<g>
	<path opacity="0.88" fill="#24B0D1" d="M-12.9,458.7l16.6,8.5c1.6,0.8,3.4,1.4,5.2,1.7l18.6,3.1c6.4,1.1,11.8,5.6,13.8,11.8
		l5.3,16.1c0.7,2,1.7,3.9,3,5.5L60,518.5c3.6,4.5,4.8,10.4,3.2,16L57.6,554c-0.4,1.4-0.6,2.9-0.7,4.4l-0.6,18.1
		c-0.2,5.7-3.1,11-7.9,14.1l-16.6,11c-1.3,0.9-2.5,1.9-3.5,3l-9.8,11.1c-4,4.5-9.9,6.7-15.8,5.8l-21-3.2c-1.8-0.3-3.6-0.3-5.4,0
		l-19.7,3.2c-5.7,0.9-11.4-1-15.4-5.1l-12-12.4c-0.7-0.7-1.4-1.4-2.2-2l-18-13.2c-4.4-3.2-7-8.2-7.2-13.6l-0.5-16.5
		c-0.1-1.8-0.4-3.5-1-5.2l-6.4-18.3c-2.1-6-0.8-12.7,3.5-17.5l11-12.4c1.4-1.6,2.5-3.4,3.3-5.3l6.7-17.1c2.2-5.7,7.3-9.9,13.3-10.9
		l17.7-3.1c1.7-0.3,3.4-0.9,5-1.7l16.6-8.5C-23.9,456.1-17.9,456.1-12.9,458.7z"/>
	<text transform="matrix(1 0 0 1 89.687 597.6777)"><tspan x="0" y="0" fill="#252526" font-family="'Cinzel-Regular'" font-size="143.4402">L</tspan><tspan x="80.6" y="0" fill="#252526" font-family="'Cinzel-Regular'" font-size="89.2128">angford </tspan><tspan x="537.2" y="0" fill="#252526" font-family="'Cinzel-Regular'" font-size="157.7842">H</tspan><tspan x="665.5" y="0" fill="#252526" font-family="'Cinzel-Regular'" font-size="89.2128">oldings</tspan></text>
</g>
</svg>
