<?xml version="1.0" encoding="utf-8"?>
<!-- Generator: Adobe Illustrator 18.1.0, SVG Export Plug-In . SVG Version: 6.00 Build 0)  -->
<!DOCTYPE svg PUBLIC "-//W3C//DTD SVG 1.1//EN" "http://www.w3.org/Graphics/SVG/1.1/DTD/svg11.dtd">
<svg version="1.1" id="Layer_1" xmlns="http://www.w3.org/2000/svg" xmlns:xlink="http://www.w3.org/1999/xlink" x="0px" y="0px"
	 viewBox="0 162 960 189" enable-background="new 0 162 960 189" xml:space="preserve">
<g>
	<path d="M12.2,170.5h54.5v23.6H37v35.4h26.2V253H37v36.2h30.3v23.6H12.2V170.5z"/>
	<path d="M72,203.8h23.8l11.2,70.7l11.2-70.7h23.4l-22.4,109.3H94.5L72,203.8z"/>
	<path d="M150.2,169.5h24.4v24h-24.4V169.5z M150.4,203.8h24v108.9h-24V203.8z"/>
	<path d="M188.2,169.5h24v143.3h-24V169.5z"/>
	<path d="M256.3,244.1v-4.9c0-50,18.5-69.7,41.7-69.7c6.9,0,11,0.8,16.3,3.3v25.6c-5.1-3-9.1-4.7-13.8-4.7c-11,0-18.9,9.8-18.9,45.3
		v5.3c0,37.6,7.9,45.3,19.3,45.3c3.9,0,8.7-1.4,13.8-4.5v24.4c-5.7,3.3-11.2,4.3-18.3,4.3C273.6,313.8,256.3,293.6,256.3,244.1z"/>
	<path d="M322.3,261.7v-6.5c0-35,14.2-53,33.7-53s33.7,18.1,33.7,53v6.5c0,35-14.2,53-33.7,53S322.3,296.7,322.3,261.7z
		 M365.8,262.1v-7.3c0-21.5-3.7-31.3-9.8-31.3c-6.1,0-9.8,9.8-9.8,31.3v7.3c0,21.1,3.7,31.3,9.8,31.3
		C362.1,293.4,365.8,283.3,365.8,262.1z"/>
	<path d="M401.2,203.8h24v13.6c3.3-9.3,8.3-15.4,17.5-14.8v28.9h-0.4c-11.4,0-17.1,7.7-17.1,23.2v58.1h-24V203.8z"/>
	<path d="M452,203.8h24v13.6c3.5-6.5,8.5-15.6,19.1-15.6c13,0,23.2,12.4,23.2,51.6v9.8c0,38.8-10.2,51.6-23.2,51.6
		c-10.6,0-15.4-8.7-19.1-15.2v39.6h-24V203.8z M494.2,261.9v-7.3c0-19.5-2.8-29.9-8.9-29.9c-6.1,0-9.6,10.4-9.6,29.9v7.3
		c0,19.3,3.5,29.9,9.6,29.9C491.4,291.8,494.2,281.2,494.2,261.9z"/>
	<path d="M528,261.7v-6.5c0-35,14.2-53,33.7-53c19.5,0,33.7,18.1,33.7,53v6.5c0,35-14.2,53-33.7,53C542.2,314.8,528,296.7,528,261.7
		z M571.4,262.1v-7.3c0-21.5-3.7-31.3-9.8-31.3c-6.1,0-9.8,9.8-9.8,31.3v7.3c0,21.1,3.7,31.3,9.8,31.3
		C567.8,293.4,571.4,283.3,571.4,262.1z"/>
	<path d="M606.8,203.8h24v13.6c3.3-9.3,8.3-15.4,17.5-14.8v28.9h-0.4c-11.4,0-17.1,7.7-17.1,23.2v58.1h-24V203.8z"/>
	<path d="M651.7,282.5V279c0-24.4,9.8-34.5,24.2-34.5c5.1,0,9.8,1.4,14.4,4.1V242c0-11.2-5.5-17.1-15.2-17.1
		c-6.1,0-12.2,2.4-18.1,5.1v-22.8c7.3-3.3,13.4-4.7,22.8-4.7c22.1,0,34.3,13,34.3,37.8v72.3h-24v-11.6c-4.3,8.9-10,13.4-17.7,13.4
		C660.4,314.6,651.7,302.4,651.7,282.5z M690.3,284.1v-18.7c-1.8-1-5.5-2.2-7.5-2.2c-4.9,0-8.1,4.1-8.1,14.4v2.8
		c0,10.8,3.3,14,7.5,14C686.3,294.5,690.3,291,690.3,284.1z"/>
	<path d="M728.5,294v-70.7H722v-19.5h6.5V176h24v27.8h12.8v19.5h-12.8v62.6c0,4.9,2.4,6.7,6.7,6.7c1.8,0,3.9-0.4,5.9-1.2v19.1
		c-3.7,2-9.3,3.7-14.2,3.7C739.5,314.2,728.5,310.5,728.5,294z"/>
	<path d="M775.2,169.5h24.4v24h-24.4V169.5z M775.4,203.8h24v108.9h-24V203.8z"/>
	<path d="M811,261.7v-6.5c0-35,14.2-53,33.7-53c19.5,0,33.7,18.1,33.7,53v6.5c0,35-14.2,53-33.7,53C825.2,314.8,811,296.7,811,261.7
		z M854.5,262.1v-7.3c0-21.5-3.7-31.3-9.8-31.3c-6.1,0-9.8,9.8-9.8,31.3v7.3c0,21.1,3.7,31.3,9.8,31.3
		C850.8,293.4,854.5,283.3,854.5,262.1z"/>
	<path d="M889.8,203.8h24v13c4.3-8.3,9.8-15,19.3-15c13.8,0,20.9,11.8,20.9,28.4v82.5h-24v-77c0-7.9-3-12.4-7.9-12.4
		s-8.3,4.5-8.3,12.4v77h-24V203.8z"/>
</g>
</svg>
